<?xml version="1.0" encoding="utf-8"?>
<!-- Generator: Adobe Illustrator 14.0.0, SVG Export Plug-In . SVG Version: 6.00 Build 43363)  -->
<!DOCTYPE svg PUBLIC "-//W3C//DTD SVG 1.1//EN" "http://www.w3.org/Graphics/SVG/1.1/DTD/svg11.dtd">
<svg version="1.1" id="Layer_1" xmlns="http://www.w3.org/2000/svg" xmlns:xlink="http://www.w3.org/1999/xlink" x="0px" y="0px"
	 width="30px" height="30px" viewBox="0 0 30 30" enable-background="new 0 0 30 30" xml:space="preserve">
<g>
	<g>
		<g>
			<path fill="#EDA133" d="M25,23.5c0,0.828-0.672,1.5-1.5,1.5h-17C5.672,25,5,24.328,5,23.5v-13C5,9.672,5.672,9,6.5,9h17
				c0.828,0,1.5,0.672,1.5,1.5V23.5z"/>
		</g>
		<path fill="#FFD43D" d="M26,13V6.5C26,5.672,25.328,5,24.5,5h-19C4.672,5,4,5.672,4,6.5V13H26z"/>
		<rect x="13" y="5" fill="#FFE99E" width="4" height="8"/>
		<rect x="13" y="13" fill="#F1B866" width="4" height="12"/>
	</g>
	<rect fill="none" width="30" height="30"/>
</g>
</svg>
